# xmcd
#
# Track frame offsets: 
#        150
#        11440
#        20582
#        31452
#        40950
#        52570
#        62567
#        73937
#        84650
#        98862
#        112367
#        123547
#        135920
#        145715
#        154882
#        163860
#        173460
#        185582
#
# Disc length: 2648 seconds
#
# Revision: 3
# Processed by: cddbd v1.5.2PL0 Copyright (c) Steve Scherf et al.
# Submitted via: ExactAudioCopy v0.99pb4
#
DISCID=f20a5612
DTITLE=Nancy Wilson - The Best Of Nancy Wilson
DYEAR=2002
DGENRE=Jazz
TTITLE0=Call Me Irresponsible  [2000]
TTITLE1=Wives and Lovers  [2000]
TTITLE2=(I Left My Heart)  In San Francisco  [2000]
TTITLE3=Moon River  [1963]
TTITLE4=Someone To Watch Over Me  [1995]
TTITLE5=What Kind Of Fool Am I ¿  [2000]
TTITLE6=As Long As He Needs Me  [1963]
TTITLE7=Like Someone In Love  [1966]
TTITLE8=All Night Long  [1960]
TTITLE9=Time After Time  [1995]
TTITLE10=What A Little Moonlight Can Do  [1995]
TTITLE11=The Things We Did Last Summer  [1961]
TTITLE12=Yesterday  [1966]
TTITLE13=One Note Samba  (Samba De Uma Nota So)  [1966]
TTITLE14=Uptight  (Everything Is Alright)  [1966]
TTITLE15=Unchain My Heart  [2000]
TTITLE16=Spinning Wheel  [1969]
TTITLE17=Son Of A Preacher Man  [1996]
EXTD=YEAR: 2002
EXTT0=
EXTT1=
EXTT2=
EXTT3=
EXTT4=
EXTT5=
EXTT6=
EXTT7=
EXTT8=
EXTT9=
EXTT10=
EXTT11=
EXTT12=
EXTT13=
EXTT14=
EXTT15=
EXTT16=
EXTT17=
PLAYORDER=
